<svg width="35" height="35" viewBox="0 0 35 35" fill="none" xmlns="http://www.w3.org/2000/svg">
<circle cx="17.5" cy="17.5" r="17.5" fill="#FCFCFC" fill-opacity="0.4"/>
<path d="M13.625 11H22.375C22.5408 11 22.6997 11.0663 22.8169 11.1844C22.9342 11.3025 23 11.4627 23 11.6297V23.6847C23.0001 23.741 22.9852 23.7963 22.9568 23.8449C22.9285 23.8934 22.8877 23.9333 22.8388 23.9606C22.79 23.9879 22.7347 24.0014 22.6788 23.9999C22.623 23.9983 22.5686 23.9817 22.5212 23.9517L18 21.0946L13.4787 23.9511C13.4315 23.981 13.3771 23.9977 13.3213 23.9992C13.2655 24.0008 13.2103 23.9873 13.1614 23.9601C13.1126 23.9329 13.0718 23.8931 13.0434 23.8446C13.015 23.7962 13 23.741 13 23.6847V11.6297C13 11.4627 13.0658 11.3025 13.1831 11.1844C13.3003 11.0663 13.4592 11 13.625 11ZM21.75 12.2595H14.25V21.9775L18 19.6091L21.75 21.9775V12.2595Z" fill="#EC5118"/>
</svg>
